<svg width="183" height="200" viewBox="0 0 183 200" xmlns="http://www.w3.org/2000/svg"><title>bomb</title><g fill-rule="nonzero" fill="#000"><path d="M158.793 34.557h-27.646c-7.74 0-14.039-6.298-14.039-14.039C117.108 9.205 107.904 0 96.59 0S76.07 9.205 76.07 20.518v7.128H65.488a6.703 6.703 0 0 0-6.695 6.695v9.826C25 53.23.046 84.12.046 120.734.046 164.441 35.604 200 79.31 200s79.266-35.559 79.266-79.266c0-36.613-24.955-67.503-58.747-76.567v-9.826a6.703 6.703 0 0 0-6.696-6.695H82.551v-7.128c0-7.741 6.298-14.039 14.038-14.039 7.741 0 14.04 6.298 14.04 14.04 0 11.313 9.204 20.518 20.518 20.518h27.646a3.24 3.24 0 0 0 0-6.48zm-6.696 86.177c0 40.135-32.652 72.787-72.786 72.787S6.525 160.869 6.525 120.734c0-40.134 32.652-72.786 72.786-72.786 40.135 0 72.786 32.652 72.786 72.786zM93.134 34.125c.12 0 .216.098.216.216v8.373a79.425 79.425 0 0 0-14.04-1.245c-4.789 0-9.48.427-14.038 1.245v-8.373c0-.118.097-.216.216-.216h27.646zM179.527 34.557h-6.911a3.24 3.24 0 0 0 0 6.48h6.911a3.24 3.24 0 0 0 0-6.48zM158.793 13.823a3.24 3.24 0 0 0-3.24 3.24v6.911a3.24 3.24 0 0 0 6.48 0v-6.912a3.24 3.24 0 0 0-3.24-3.239z"/><path d="M158.793 48.38a3.24 3.24 0 0 0-3.24 3.24v6.911a3.24 3.24 0 0 0 6.48 0V51.62a3.24 3.24 0 0 0-3.24-3.24zM175.745 50.167l-4.887-4.887a3.24 3.24 0 1 0-4.581 4.582l4.887 4.886c.632.633 1.461.95 2.29.95a3.24 3.24 0 0 0 2.29-5.53zM151.309 25.732l-4.887-4.887a3.239 3.239 0 1 0-4.581 4.582l4.887 4.887c.632.632 1.461.949 2.29.949a3.24 3.24 0 0 0 2.29-5.53zM151.309 45.28a3.24 3.24 0 0 0-4.581 0l-4.887 4.887a3.24 3.24 0 0 0 4.581 4.582l4.887-4.887a3.24 3.24 0 0 0 0-4.581zM175.745 20.845a3.24 3.24 0 0 0-4.582 0l-4.886 4.887a3.24 3.24 0 1 0 4.58 4.581l4.888-4.886a3.24 3.24 0 0 0 0-4.582zM112.038 64.05a65.465 65.465 0 0 0-7.257-3.616 3.24 3.24 0 0 0-2.523 5.968 58.971 58.971 0 0 1 6.535 3.257 3.239 3.239 0 0 0 3.245-5.609zM66.205 178.237c-13.27-3.012-25.192-10.635-33.567-21.467a3.24 3.24 0 0 0-5.126 3.964c9.294 12.018 22.526 20.478 37.26 23.821a3.24 3.24 0 0 0 1.433-6.319zM142.199 102.568c-3.402-11.797-10.063-22.384-19.264-30.616a3.24 3.24 0 1 0-4.32 4.828c8.291 7.42 14.294 16.958 17.358 27.584a3.241 3.241 0 0 0 4.01 2.215 3.24 3.24 0 0 0 2.216-4.01z"/></g></svg>