<svg width="166" height="200" viewBox="0 0 166 200" xmlns="http://www.w3.org/2000/svg"><title>light-bulb</title><g fill-rule="nonzero" fill="#000"><path d="M123.78 112.963c6.805-8.974 10.402-19.685 10.402-30.976 0-13.843-5.43-26.82-15.288-36.54-9.857-9.72-22.922-14.968-36.767-14.768-13.417.19-26.058 5.574-35.594 15.16-9.535 9.586-14.854 22.255-14.976 35.673-.104 11.504 3.514 22.407 10.463 31.533 11.281 14.814 17.494 32.96 17.494 51.095v19.844c0 8.802 7.161 15.963 15.964 15.963h14.848c8.802 0 15.963-7.161 15.963-15.963v-19.842c0-18.336 6.005-36.034 17.49-51.18zm-76.526-3.904c-6.056-7.952-9.209-17.457-9.118-27.487.219-24.094 19.995-43.973 44.084-44.314 12.085-.162 23.462 4.401 32.055 12.874 8.595 8.474 13.328 19.787 13.328 31.856 0 9.843-3.135 19.18-9.065 27-12.102 15.958-18.619 34.576-18.885 53.916H66.084c-.275-19.153-6.937-38.228-18.83-53.845zm18.84 72.696v-2.663l33.617 3.851v1.041c0 .548-.057 1.083-.148 1.605l-33.47-3.834zm0-9.285v-2.987H99.71v6.838l-33.618-3.851zm9.384 20.899c-3.534 0-6.615-1.965-8.216-4.858l28.32 3.244a9.33 9.33 0 0 1-5.256 1.613H75.478z"/><path d="M50.34 86.936a33.667 33.667 0 0 1-.362-5.256 3.29 3.29 0 0 0-3.26-3.32 3.298 3.298 0 0 0-3.319 3.26c-.02 2.11.127 4.224.434 6.286a3.29 3.29 0 1 0 6.507-.97zM69.699 136.901a3.29 3.29 0 0 0 3.125-4.318 104.362 104.362 0 0 0-16.149-30.698 33.231 33.231 0 0 1-3.077-4.86 3.29 3.29 0 1 0-5.844 3.022 39.864 39.864 0 0 0 3.687 5.824 97.798 97.798 0 0 1 15.134 28.768 3.29 3.29 0 0 0 3.124 2.262zM117.432 93.251a3.29 3.29 0 0 0-4.322 1.72 32.903 32.903 0 0 1-4.008 6.861 3.29 3.29 0 0 0 5.242 3.975 39.53 39.53 0 0 0 4.808-8.233 3.289 3.289 0 0 0-1.72-4.323zM82.869 49.096c18.137 0 32.892 14.755 32.892 32.892 0 1.031-.047 2.07-.14 3.088a3.29 3.29 0 0 0 6.55.602c.112-1.217.169-2.459.169-3.69 0-21.764-17.707-39.471-39.471-39.471a3.29 3.29 0 0 0 0 6.579zM82.869 25a3.29 3.29 0 0 0 3.29-3.29V3.29a3.29 3.29 0 0 0-6.58 0v18.42A3.29 3.29 0 0 0 82.87 25zM49.59 31.5a3.288 3.288 0 0 0 4.493 1.204 3.29 3.29 0 0 0 1.205-4.493l-9.206-15.947a3.29 3.29 0 1 0-5.698 3.289L49.59 31.5zM153.167 119.349l-15.948-9.206a3.289 3.289 0 1 0-3.289 5.697l15.948 9.206a3.288 3.288 0 0 0 4.493-1.204 3.29 3.29 0 0 0-1.204-4.493zM12.57 45.775l15.948 9.206a3.288 3.288 0 0 0 4.493-1.204 3.29 3.29 0 0 0-1.204-4.494L15.86 40.077a3.289 3.289 0 1 0-3.29 5.698zM162.14 79.272h-18.42a3.29 3.29 0 0 0 0 6.579h18.42a3.29 3.29 0 0 0 0-6.58zM25.307 82.561a3.29 3.29 0 0 0-3.29-3.29H3.598a3.29 3.29 0 0 0 0 6.58h18.42a3.29 3.29 0 0 0 3.29-3.29zM135.578 55.422c.558 0 1.123-.142 1.641-.441l15.948-9.206a3.29 3.29 0 0 0-3.29-5.698l-15.947 9.206a3.29 3.29 0 0 0 1.648 6.139zM28.518 110.143l-15.947 9.206a3.29 3.29 0 0 0 3.289 5.697l15.947-9.206a3.29 3.29 0 0 0-3.289-5.697zM111.654 32.704a3.288 3.288 0 0 0 4.493-1.204l9.207-15.947a3.29 3.29 0 0 0-5.698-3.29l-9.206 15.948a3.29 3.29 0 0 0 1.204 4.493z"/></g></svg>