<svg width="200" height="177" viewBox="0 0 200 177" xmlns="http://www.w3.org/2000/svg"><title>gas-mask</title><g fill-rule="nonzero" fill="#000"><path d="M20.518 121.327c-3.332 0-6.695 3.673-6.695 11.878 0 8.206 3.363 11.88 6.695 11.88 3.333 0 6.696-3.674 6.696-11.88 0-8.205-3.363-11.878-6.696-11.878z"/><path d="M179.482 97.137h-10.584V62.363c0-13.339-5.009-25.866-14.14-35.49.207-.807.318-1.652.318-2.523V7.072A6.703 6.703 0 0 0 148.38.377h-6.911a6.703 6.703 0 0 0-6.696 6.695v6.714c-5.585-2.018-11.449-3.042-17.494-3.042H82.72c-6.045 0-11.909 1.024-17.494 3.042V7.072A6.703 6.703 0 0 0 58.532.377H51.62a6.703 6.703 0 0 0-6.695 6.695V24.35c0 .87.11 1.716.318 2.523-9.133 9.624-14.141 22.15-14.141 35.49v34.773H20.518C9.012 97.136 0 112.98 0 133.206c0 20.225 9.012 36.069 20.518 36.069h27.646c5.1 0 9.709-3.119 13.261-8.347a68.388 68.388 0 0 0 17.686 8.578 10.085 10.085 0 0 0 9.54 6.68h22.698c4.368 0 8.113-2.715 9.539-6.68a68.366 68.366 0 0 0 17.686-8.578c3.553 5.228 8.16 8.347 13.262 8.347h27.645c11.506 0 20.519-15.844 20.519-36.07 0-20.225-9.012-36.068-20.518-36.068zm-38.23-90.065c0-.12.098-.216.217-.216h6.911c.12 0 .216.097.216.216v7.127h-7.343V7.072zm0 13.607h7.344v3.671a3.676 3.676 0 0 1-3.672 3.672 3.676 3.676 0 0 1-3.672-3.672V20.68zM51.405 7.072c0-.12.097-.216.216-.216h6.911c.12 0 .216.097.216.216v7.127h-7.343V7.072zm0 13.607h7.343v3.671a3.676 3.676 0 0 1-3.672 3.672 3.676 3.676 0 0 1-3.671-3.672V20.68zM20.518 162.795c-3.305 0-6.713-2.874-9.35-7.884-3.024-5.744-4.689-13.453-4.689-21.706 0-8.252 1.665-15.96 4.689-21.705 2.637-5.01 6.045-7.884 9.35-7.884 3.306 0 6.714 2.873 9.351 7.884 3.024 5.744 4.688 13.453 4.688 21.705 0 8.253-1.664 15.961-4.688 21.706-2.637 5.01-6.045 7.884-9.35 7.884zm36.997-7.884c-2.637 5.01-6.045 7.884-9.35 7.884h-1.953c5.263-6.466 8.648-17.202 8.648-29.59 0-3.084-.215-6.146-.638-9.1a3.24 3.24 0 1 0-6.414.918c.38 2.652.572 5.404.572 8.183 0 8.253-1.664 15.96-4.688 21.705-2.637 5.01-6.045 7.885-9.35 7.885h-1.953c5.264-6.467 8.648-17.203 8.648-29.59s-3.384-23.122-8.648-29.59H34.344c3.472.002 7.003 3.12 9.69 8.555a3.24 3.24 0 1 0 5.808-2.871c-1.072-2.17-2.27-4.07-3.57-5.683h1.892c3.306 0 6.714 2.874 9.351 7.885 3.024 5.744 4.689 13.452 4.689 21.705 0 8.253-1.666 15.96-4.69 21.704zm57.464 11.682a3.652 3.652 0 0 1-3.63 3.114H88.652a3.652 3.652 0 0 1-3.629-3.114l-2.713-17.632c4.78 4.045 10.954 6.49 17.691 6.49 6.737 0 12.91-2.445 17.691-6.49l-2.712 17.632zM100 148.973c-11.552 0-20.95-9.4-20.95-20.951 0-11.552 9.398-20.95 20.95-20.95s20.95 9.398 20.95 20.95-9.398 20.95-20.95 20.95zm22.213 13.208l4.025-26.163a27.344 27.344 0 0 0 1.192-7.997c0-15.125-12.305-27.43-27.43-27.43s-27.43 12.306-27.43 27.43c0 2.781.42 5.466 1.193 7.997l4.024 26.163a61.992 61.992 0 0 1-13.254-6.983c2.612-6.049 4.15-13.645 4.15-21.993 0-20.225-9.013-36.069-20.519-36.069H37.581V62.363c0-11.163 4.01-21.676 11.354-29.936a10.094 10.094 0 0 0 6.14 2.075c5.598 0 10.152-4.554 10.152-10.152v-3.609c5.532-2.332 11.407-3.518 17.494-3.518h34.558c6.087 0 11.962 1.185 17.494 3.518v3.61c0 5.597 4.554 10.15 10.151 10.15a10.1 10.1 0 0 0 6.14-2.074c7.344 8.26 11.355 18.774 11.355 29.936v34.773h-10.583c-11.506 0-20.518 15.844-20.518 36.07 0 8.347 1.538 15.943 4.15 21.992a61.95 61.95 0 0 1-13.255 6.983zm43.446.614c-3.306 0-6.714-2.874-9.351-7.884-3.024-5.744-4.688-13.453-4.688-21.706 0-2.778.192-5.53.571-8.182a3.24 3.24 0 0 0-6.413-.918 64.418 64.418 0 0 0-.638 9.1c0 12.388 3.384 23.123 8.648 29.59h-1.952c-3.306 0-6.714-2.874-9.35-7.885-3.024-5.744-4.69-13.452-4.69-21.705 0-8.253 1.666-15.96 4.69-21.705 2.636-5.01 6.044-7.885 9.35-7.885h1.893c-1.3 1.614-2.498 3.513-3.57 5.683a3.24 3.24 0 1 0 5.807 2.87c2.688-5.435 6.22-8.553 9.693-8.553h1.952c-5.264 6.467-8.648 17.202-8.648 29.59 0 12.386 3.384 23.122 8.648 29.589h-1.952v.001zm23.173-7.884c-2.637 5.01-6.045 7.884-9.35 7.884-3.306 0-6.714-2.874-9.351-7.884-3.024-5.744-4.688-13.453-4.688-21.706 0-8.252 1.664-15.96 4.688-21.705 2.637-5.01 6.045-7.884 9.35-7.884 3.306 0 6.714 2.873 9.351 7.884 3.024 5.744 4.689 13.453 4.689 21.705 0 8.253-1.665 15.962-4.689 21.706z"/><path d="M179.482 121.327c-3.333 0-6.696 3.673-6.696 11.878 0 8.206 3.363 11.88 6.696 11.88 3.332 0 6.695-3.674 6.695-11.88 0-8.205-3.363-11.878-6.695-11.878zM68.898 48.756c-13.22 0-23.974 10.755-23.974 23.974 0 13.22 10.755 23.975 23.974 23.975 13.22 0 23.975-10.755 23.975-23.975S82.118 48.756 68.898 48.756zm0 41.469c-9.646 0-17.494-7.848-17.494-17.495 0-9.646 7.848-17.494 17.494-17.494 9.647 0 17.495 7.848 17.495 17.494 0 9.647-7.848 17.495-17.495 17.495zM131.102 48.756c-13.22 0-23.975 10.755-23.975 23.974 0 13.22 10.755 23.975 23.975 23.975s23.974-10.755 23.974-23.975-10.755-23.974-23.974-23.974zm0 41.469c-9.647 0-17.495-7.848-17.495-17.495 0-9.646 7.848-17.494 17.495-17.494 9.646 0 17.494 7.848 17.494 17.494 0 9.647-7.848 17.495-17.494 17.495zM113.405 125.682a3.24 3.24 0 1 0-6.384 1.109A7.135 7.135 0 0 1 100 135.15a7.135 7.135 0 0 1-7.126-7.128c0-3.93 3.197-7.127 7.127-7.127.4 0 .8.033 1.193.098a3.24 3.24 0 1 0 1.07-6.39 13.69 13.69 0 0 0-2.263-.188c-7.503 0-13.607 6.104-13.607 13.607 0 7.503 6.104 13.607 13.607 13.607 7.503 0 13.607-6.104 13.607-13.607 0-.785-.068-1.572-.202-2.34z"/></g></svg>